# xmcd
#
# Track frame offsets: 
#        150
#        13113
#        23442
#        35856
#        47706
#        61562
#
# Disc length: 925 seconds
#
# Revision: 0
# Processed by: cddbd v1.5.1PL2 Copyright (c) Steve Scherf et al.
# Submitted via: ExactAudioCopy v0.95a5
#
DISCID=40039b06
DTITLE=The Cedar Grove Band - Bluegrass Show
DYEAR=2004
DGENRE=Bluegrass
TTITLE0=Double Banjo Blues
TTITLE1=Rabbit In A Log
TTITLE2=Remington Ride
TTITLE3=Steppin Too
TTITLE4=Wreck Of Old 97
TTITLE5=Chockin' The Strings
EXTD=
EXTT0=
EXTT1=
EXTT2=
EXTT3=
EXTT4=
EXTT5=
PLAYORDER=
